<svg xmlns="http://www.w3.org/2000/svg" viewBox="0 0 342 342"><defs><style>.cls-1{fill:#010101;}.cls-2{fill:#f5b335;}.cls-3{fill:#fff;}</style></defs><g id="Layer_2" data-name="Layer 2"><g id="Layer_1-2" data-name="Layer 1"><rect class="cls-1" width="342" height="342"/><circle class="cls-2" cx="297" cy="126.01" r="9"/><rect class="cls-2" x="288" y="144.01" width="18" height="80.99" transform="translate(594 369.01) rotate(-180)"/><path class="cls-3" d="M210,150a33,33,0,0,0-33-33H126V225h18V135h33a15,15,0,0,1,0,30H154.57l34.64,60H210l-24.83-43A33,33,0,0,0,210,150Z"/><path class="cls-3" d="M117,194.78a36,36,0,1,1,0-47.56v-23a54,54,0,1,0,0,93.52Z"/><polygon class="cls-3" points="261 117 257.94 117 207.99 203.51 218.38 221.51 261 147.7 261 225 279 225 279 117 278.73 117 261 117"/></g></g></svg>